# xmcd CD database file
#
# Track frame offsets:
#	150
#	20017
#	36136
#	63312
#	87052
#	119035
#	142193
#	169366
#	188091
#	213774
#	233091
#
# Disc length: 3717 seconds
#
# Revision: 0
# Processed by: cddbd v1.5.2PL0 Copyright (c) Steve Scherf et al.
# Submitted via: CDex 1.70beta2
#
DISCID=9a0e830b
DTITLE=Ice Blue Orchestra - Awake
DYEAR=2009
DGENRE=Jazz
TTITLE0=Marbies And Sandunes
TTITLE1=Four And Five
TTITLE2=Spring Overture
TTITLE3=Hemolic
TTITLE4=Des Königs Smaragde
TTITLE5=Nocturne After Midnight
TTITLE6=Berlin Funk
TTITLE7=Wild Bird Can Fly
TTITLE8=Wyatt Earp'sLast Success
TTITLE9=The Day Before
TTITLE10=Awake
EXTD=YEAR: 2009
EXTT0=
EXTT1=
EXTT2=
EXTT3=
EXTT4=
EXTT5=
EXTT6=
EXTT7=
EXTT8=
EXTT9=
EXTT10=
PLAYORDER=
